<?xml version="1.0" encoding="UTF-8" standalone="no"?>
<!-- Created with Inkscape (http://www.inkscape.org/) -->

<svg
   xmlns:dc="http://purl.org/dc/elements/1.1/"
   xmlns:cc="http://creativecommons.org/ns#"
   xmlns:rdf="http://www.w3.org/1999/02/22-rdf-syntax-ns#"
   xmlns:svg="http://www.w3.org/2000/svg"
   xmlns="http://www.w3.org/2000/svg"
   xmlns:sodipodi="http://sodipodi.sourceforge.net/DTD/sodipodi-0.dtd"
   xmlns:inkscape="http://www.inkscape.org/namespaces/inkscape"
   width="210mm"
   height="297mm"
   viewBox="0 0 210 297"
   version="1.1"
   id="svg8"
   inkscape:version="0.92.4 (5da689c313, 2019-01-14)"
   sodipodi:docname="icon.svg">
  <defs
     id="defs2" />
  <sodipodi:namedview
     id="base"
     pagecolor="#ffffff"
     bordercolor="#666666"
     borderopacity="1.0"
     inkscape:pageopacity="0.0"
     inkscape:pageshadow="2"
     inkscape:zoom="1"
     inkscape:cx="32.884762"
     inkscape:cy="805.90605"
     inkscape:document-units="mm"
     inkscape:current-layer="layer1"
     showgrid="false"
     inkscape:window-width="1680"
     inkscape:window-height="987"
     inkscape:window-x="-8"
     inkscape:window-y="-8"
     inkscape:window-maximized="1" />
  <metadata
     id="metadata5">
    <rdf:RDF>
      <cc:Work
         rdf:about="">
        <dc:format>image/svg+xml</dc:format>
        <dc:type
           rdf:resource="http://purl.org/dc/dcmitype/StillImage" />
        <dc:title></dc:title>
      </cc:Work>
    </rdf:RDF>
  </metadata>
  <g
     inkscape:groupmode="layer"
     id="layer2"
     inkscape:label="back"
     sodipodi:insensitive="true">
    <rect
       style="opacity:1;fill:#1a1a1a;fill-opacity:1;stroke:none;stroke-width:0.60000002;stroke-linejoin:bevel;stroke-miterlimit:4;stroke-dasharray:none;paint-order:normal"
       id="rect847"
       width="153.67998"
       height="40.624966"
       x="-1.4916525"
       y="105.58004" />
  </g>
  <g
     inkscape:label="Layer 1"
     inkscape:groupmode="layer"
     id="layer1">
    <circle
       style="opacity:1;fill:#ffffff;fill-opacity:1;stroke:none;stroke-width:0.60000002;stroke-linejoin:bevel;stroke-miterlimit:4;stroke-dasharray:none;paint-order:normal"
       id="path849"
       cx="65.904556"
       cy="118.12385"
       r="6.1184897" />
    <path
       style="clip-rule:evenodd;fill:#1a1a1a;fill-rule:evenodd;stroke:#fbfbfb;stroke-width:0.30000001;stroke-linecap:butt;stroke-linejoin:miter;stroke-miterlimit:4;stroke-dasharray:none;stroke-opacity:1;paint-order:stroke fill markers"
       inkscape:connector-curvature="0"
       d="m 37.270626,101.94306 c -0.33059,0 -0.652905,-0.034 -0.968927,-0.086 l 0.270874,-0.67496 c 0.228877,0.031 0.460774,0.0524 0.698053,0.0524 0.328223,0 0.648312,-0.0343 0.959742,-0.0923 l -0.787164,-0.85264 h -1.117359 -0.236227 -0.236227 v -0.708425 h -0.774166 c -0.08176,0.14042 -0.232423,0.23623 -0.406708,0.23623 -0.260899,0 -0.472584,-0.21156 -0.472584,-0.47259 0,-0.26103 0.211556,-0.47246 0.472584,-0.47246 0.174419,0 0.325079,0.0956 0.406708,0.23623 h 0.774166 v -0.23623 -0.47258 h 0.472454 l 2.244454,-0.002 0.697367,0.73119 c 0.04132,-0.0118 0.08412,-0.0201 0.129008,-0.0201 0.260899,0 0.472455,0.21156 0.472455,0.47259 0,0.26076 -0.211422,0.472195 -0.472455,0.472195 -0.261033,0 -0.472325,-0.211295 -0.472325,-0.472195 0,-0.0388 0.0058,-0.076 0.01443,-0.11208 l -0.550806,-0.59674 H 36.32597 v 0.94491 c 0.440026,1.5e-4 0.880054,-5.9e-4 1.320078,5.4e-4 l 1.110966,1.198195 c 0.863017,-0.25723 1.629182,-0.73507 2.240353,-1.364225 l -0.892047,-0.99282 1.56e-4,-2.02108 -0.713275,-0.77207 c -0.269803,0.23453 -0.48515,0.42287 -0.734815,0.64137 l -1.215932,0.003 c -0.08176,0.14069 -0.232423,0.23636 -0.406837,0.23636 -0.260899,0 -0.472454,-0.21155 -0.472454,-0.47259 0,-0.26103 0.211555,-0.47232 0.472454,-0.47232 0.174414,0 0.325074,0.0955 0.406837,0.23623 h 1.068274 c 0.104064,-0.0927 1.023614,-0.91212 1.359357,-1.2113 v -1.85951 h -0.944611 v 1.01053 c 0.140422,0.0818 0.235964,0.23242 0.235964,0.40671 0,0.2609 -0.211293,0.47258 -0.472326,0.47258 -0.260765,0 -0.472454,-0.21155 -0.472454,-0.47258 0,-0.17442 0.09554,-0.32508 0.236227,-0.40671 v -1.01083 -0.23623 -0.23622 h 1.417235 v -0.94268 c -0.187147,-0.10827 -0.379278,-0.20906 -0.580199,-0.29371 -0.0752,0.0347 -0.158274,0.0554 -0.246594,0.0554 -0.325996,0 -0.590442,-0.26444 -0.590442,-0.59057 0,-0.32599 0.264446,-0.59043 0.590442,-0.59043 0.294365,0 0.536366,0.21575 0.581117,0.49712 2.089038,0.90948 3.552596,2.98448 3.552596,5.40817 0,3.26138 -2.643777,5.905295 -5.905423,5.905295 z m 4.015738,-5.669065 c -0.260904,0 -0.472326,-0.2113 -0.472326,-0.47233 0,-0.17441 0.09567,-0.32507 0.236099,-0.40696 v -1.95518 h 0.236227 0.236356 0.245414 c -0.361298,-0.62089 -0.849238,-1.1587 -1.426421,-1.58194 v 3.47163 h -0.333605 c -0.07664,0.0667 -0.164048,0.14305 -0.259585,0.22612 l 0.829161,0.89812 v 0.76552 h 0.301845 c 0.08163,-0.14069 0.232289,-0.23623 0.406703,-0.23623 0.260899,0 0.472589,0.21155 0.472589,0.47259 0,0.26077 -0.211556,0.47245 -0.472589,0.47245 -0.174414,0 -0.325073,-0.0957 -0.406703,-0.23623 h -0.301845 v 0.80948 l 0.734664,0.79569 c 0.720363,-0.89124 1.155155,-2.02302 1.155155,-3.25876 0,-0.75895 -0.16615,-1.47733 -0.459072,-2.12591 h -0.485837 v 1.48272 c 0.140684,0.082 0.236225,0.23248 0.236225,0.4069 0,0.26089 -0.211556,0.47232 -0.472455,0.47232 z m -4.015738,-5.43298 c -0.15932,0 -0.316542,0.01 -0.472192,0.024 v 1.49427 l 0.579544,0.62784 c 0.04122,-0.0118 0.08399,-0.0201 0.128875,-0.0201 0.260899,0 0.472584,0.21156 0.472584,0.4726 0,0.26089 -0.211551,0.47245 -0.472584,0.47245 -0.261033,0 -0.472326,-0.21156 -0.472326,-0.47245 0,-0.0387 0.0058,-0.076 0.01458,-0.11195 l -0.332687,-0.36065 h -0.251713 l -0.833356,0.72654 0.694372,0.7521 c -3.23e-4,1.0453 -7.4e-5,2.11192 0,3.00894 h 2.428036 c 0.08163,-0.14082 0.232289,-0.23636 0.406703,-0.23636 0.260899,0 0.472584,0.21156 0.472584,0.47259 0,0.26103 -0.211551,0.47232 -0.472584,0.47232 -0.174414,0 -0.325074,-0.0957 -0.406703,-0.2361 H 36.325994 36.089767 35.85354 v -3.29747 l -2.166601,-2.34643 c -0.131235,0.12507 -0.254862,0.25762 -0.372582,0.39568 0.688907,0.74631 1.377841,1.4926 2.066732,2.23893 -3.23e-4,0.96301 -7.4e-5,1.94611 0,2.77271 v 0.47233 h -0.47233 -1.181137 -0.235964 -0.236227 v -1.18101 h -1.092812 c 0.360113,1.95478 1.814092,3.524645 3.7047,4.054715 l -0.265755,0.66262 c -2.44797,-0.72102 -4.235952,-2.981195 -4.235952,-5.662245 0,-3.26151 2.643911,-5.90529 5.905158,-5.90529 0.32114,0 0.634012,0.0325 0.941241,0.0819 l -0.270614,0.67482 c -0.220087,-0.0284 -0.442798,-0.0483 -0.670756,-0.0483 z m -4.250912,2.21555 c -0.59503,0.84321 -0.945698,1.87027 -0.945698,2.98133 0,0.15932 0.0083,0.31655 0.02242,0.47232 h 1.631018 v 0.23636 0.23623 0.70868 h 1.181137 v -2.58866 l -0.738473,-0.79989 -0.686505,0.95081 c 0.004,0.0247 0.0079,0.0496 0.0079,0.0755 0,0.2609 -0.211555,0.47245 -0.472454,0.47245 -0.2609,0 -0.472455,-0.21155 -0.472455,-0.47245 0,-0.2609 0.211555,-0.47246 0.472455,-0.47246 0.05263,0 0.102233,0.0106 0.149479,0.0265 l 0.674824,-0.93441 z m 3.306265,-2.12552 c -0.85265,0.15683 -1.629708,0.52469 -2.282087,1.04229 l 1.26723,1.37288 1.014857,-0.88481 z"
       id="path815"
       inkscape:transform-center-x="-3.1816734"
       inkscape:transform-center-y="-27.707312"
       sodipodi:nodetypes="cccscccccccssscccccccssssccccccccccccsssccccccssscccccccssscscccsccccccccccccsssccccscccsccccccsssscccccccsssccccccccccccccccccsscccccscccccccccssssccccccc" />
  </g>
</svg>
